# xmcd
#
# Track frame offsets: 
#        150
#        29766
#        56166
#        85626
#        117522
#        201162
#
# Disc length: 3191 seconds
#
# Revision: 2
# Processed by: cddbd v1.5.2PL0 Copyright (c) Steve Scherf et al.
# Submitted via: ExactAudioCopy v1.0b3
#
DISCID=520c7506
DTITLE=Heaven and Hell - 2007-05-17 (Source 2) CD2
DYEAR=2007
DGENRE=Heavy Metal
TTITLE0=Computer God
TTITLE1=Falling Off The Edge Of The World
TTITLE2=The Shadow Of The Wind
TTITLE3=Guitar Solo - Die Young
TTITLE4=Heaven and Hell
TTITLE5=Neon Knights
EXTD=
EXTT0=
EXTT1=
EXTT2=
EXTT3=
EXTT4=
EXTT5=
PLAYORDER=
